# xmcd
#
# Track frame offsets:
#  150
#  15842
#  37565
#  54390
#  74785
#  91232
#  106845
#  125232
#  142457
#  163202
#  187412
#  201622
#  218425
#  238877
#
# Disc length: 3361 seconds
#
# Revision: 0
# Processed by: cddbd v1.4PL0 Copyright (c) Steve Scherf et al.
# Submitted via: AltoMP3_Maker 3.0
#
DISCID=d60d1f0e
DTITLE=Fábio Jr. - Compromisso
DYEAR=1900
DGENRE=
TTITLE0=Na Canção
TTITLE1=Dou Minha Palavra
TTITLE2=Café Da Manhã
TTITLE3=Interessado
TTITLE4=Mundo Da Lua
TTITLE5=Independência Ou Morte
TTITLE6=Viver Ensina
TTITLE7=Velho Amigo
TTITLE8=Uma Historia De Amor
TTITLE9=O Que Você Me Faz
TTITLE10=Beijo Na Boca
TTITLE11=Compromisso
TTITLE12=Em Nome Do Amor
TTITLE13=Sorri (Smile)
EXTD=
EXTT0=
EXTT1=
EXTT2=
EXTT3=
EXTT4=
EXTT5=
EXTT6=
EXTT7=
EXTT8=
EXTT9=
EXTT10=
EXTT11=
EXTT12=
EXTT13=
PLAYORDER=
